<svg xmlns="http://www.w3.org/2000/svg">
<symbol viewBox="0 0 512 512" id="bluetooth">
<path d="M388.38,373.785L280.823,256L388.38,138.228c3.379-3.709,5.102-8.651,4.741-13.662c-0.36-5.016-2.755-9.666-6.641-12.855
			L255.73,4.18c-5.48-4.509-13.057-5.456-19.472-2.419c-6.415,3.024-10.503,9.476-10.503,16.57v177.373l-75.059-82.201
			c-6.819-7.472-18.421-7.998-25.893-1.173c-7.472,6.825-7.998,18.415-1.173,25.893l102.125,111.84v11.877L123.631,373.785
			c-6.831,7.466-6.305,19.063,1.173,25.893c7.478,6.831,19.069,6.305,25.893-1.179l75.053-82.189v177.361
			c0,7.087,4.094,13.545,10.503,16.576c2.493,1.173,5.169,1.754,7.827,1.754c4.173,0,8.303-1.418,11.651-4.167L386.48,400.301
			c3.886-3.195,6.281-7.845,6.641-12.855C393.481,382.436,391.771,377.493,388.38,373.785z M262.414,57.139l85.873,70.617
			l-85.873,94.042V57.139z M262.414,454.862V290.209l85.873,94.036L262.414,454.862z"/>
</symbol>

<symbol viewBox="0 0 512 512" id="road">
<g>
	<g>
		<path d="M112,96C50.24,96,0,146.24,0,208c0,57.472,89.856,159.264,100.096,170.688c3.04,3.36,7.36,5.312,11.904,5.312
			s8.864-1.952,11.904-5.312C134.144,367.264,224,265.472,224,208C224,146.24,173.76,96,112,96z M112,343.584
			C77.056,302.144,32,238.528,32,208c0-44.096,35.904-80,80-80s80,35.904,80,80C192,238.496,146.944,302.144,112,343.584z"/>
	</g>
</g>
<g>
	<g>
		<path d="M112,160c-26.464,0-48,21.536-48,48s21.536,48,48,48s48-21.536,48-48S138.464,160,112,160z M112,224
			c-8.832,0-16-7.168-16-16c0-8.832,7.168-16,16-16c8.832,0,16,7.168,16,16C128,216.832,120.832,224,112,224z"/>
	</g>
</g>
<g>
	<g>
		<path d="M496,0H368c-8.832,0-16,7.168-16,16v96v64c0,8.832,7.168,16,16,16c8.832,0,16-7.168,16-16v-48h112c8.832,0,16-7.168,16-16
			V16C512,7.168,504.832,0,496,0z M480,96h-96V32h96V96z"/>
	</g>
</g>
<g>
	<g>
		<path d="M448,352H288c-17.632,0-32-14.368-32-32c0-17.632,14.368-32,32-32h34.944c6.624,18.592,24.224,32,45.056,32
			c26.464,0,48-21.536,48-48s-21.536-48-48-48c-20.832,0-38.432,13.408-45.056,32H288c-35.296,0-64,28.704-64,64
			c0,35.296,28.704,64,64,64h160c17.632,0,32,14.368,32,32c0,17.632-14.368,32-32,32H157.056c-6.624-18.592-24.224-32-45.056-32
			c-26.464,0-48,21.536-48,48s21.536,48,48,48c20.832,0,38.432-13.408,45.056-32H448c35.296,0,64-28.704,64-64
			C512,380.704,483.296,352,448,352z M368,256c8.832,0,16,7.168,16,16c0,8.832-7.168,16-16,16c-8.832,0-16-7.168-16-16
			C352,263.168,359.168,256,368,256z M112,480c-8.832,0-16-7.168-16-16c0-8.832,7.168-16,16-16c8.832,0,16,7.168,16,16
			C128,472.832,120.832,480,112,480z"/>
	</g>
</g>
<g>
</g>
<g>
</g>
<g>
</g>
<g>
</g>
<g>
</g>
<g>
</g>
<g>
</g>
<g>
</g>
<g>
</g>
<g>
</g>
<g>
</g>
<g>
</g>
<g>
</g>
<g>
</g>
<g>
</g>
</symbol>
<symbol viewBox="0 -38 512 512" id="patent">
<path d="m512 0h-512v372.167969h314.972656v64.589843l55.980469-27.34375 55.980469 27.34375v-64.589843h85.066406zm-141.046875 312.144531c-28.125 0-51-22.878906-51-51 0-28.121093 22.875-51 51-51 28.121094 0 51 22.878907 51 51 0 28.121094-22.878906 51-51 51zm0 63.882813-25.980469 12.6875v-50.871094c8.160156 2.773438 16.890625 4.300781 25.980469 4.300781 9.085937 0 17.816406-1.527343 25.980469-4.300781v50.871094zm111.046875-33.859375h-55.066406v-22.566407c15.398437-14.753906 25.019531-35.496093 25.019531-58.457031 0-44.664062-36.335937-81-81-81s-81 36.335938-81 81c0 22.960938 9.617187 43.707031 25.019531 58.457031v22.566407h-284.972656v-312.167969h452zm0 0"/><path d="m60.035156 120.09375h391.929688v30h-391.929688zm0 0"/><path d="m105.070312 60.046875h301.859376v30h-301.859376zm0 0"/><path d="m60.035156 282.121094h145.925782v30h-145.925782zm0 0"/><path d="m60.035156 222.070312h145.925782v30h-145.925782zm0 0"/>
</symbol>
<symbol viewBox="0 0 510 510" id="charger">
<path d="m469.2 153.583v-44.653c0-8.284-6.716-15-15-15h-69.66c-8.284 0-15 6.716-15 15v44.653c-7.65.684-13.649 7.104-13.649 14.932v80.658c0 18.379 14.953 33.331 33.332 33.331h15.147v159.796c0 20.788-16.917 37.7-37.71 37.7h-163.97c-20.788 0-37.7-16.912-37.7-37.7v-32.3h31.9c8.284 0 15-6.716 15-15v-48.667h15.933c24.813 0 45-20.187 45-45v-136.046c0-20.233-13.425-37.386-31.833-43.03v-51.437c0-8.284-6.716-15-15-15h-20.99v-40.82c0-8.284-6.716-15-15-15s-15 6.716-15 15v40.82h-50.02v-40.82c0-8.284-6.716-15-15-15s-15 6.716-15 15v40.82h-20.99c-8.284 0-15 6.716-15 15v51.437c-18.409 5.644-31.833 22.796-31.833 43.03v136.046c0 24.813 20.187 45 45 45h15.933v48.667c0 8.284 6.716 15 15 15h31.9v32.3c0 37.33 30.37 67.7 67.7 67.7h163.97c37.335 0 67.71-30.37 67.71-67.7v-159.796h15.142c18.379 0 33.332-14.952 33.332-33.331v-80.658c0-7.827-5.997-14.245-13.644-14.932zm-258.21-67.763v34.467h-122v-34.467zm-153.834 215.513v-136.046c0-8.271 6.729-15 15-15h155.667c8.271 0 15 6.729 15 15v136.046c0 8.271-6.729 15-15 15-6.286 0-148.508 0-155.667 0-8.271 0-15-6.729-15-15zm60.934 45h63.8v33.667h-63.8zm321.11-222.403v29.585h-39.66v-29.585zm13.644 125.243c0 1.837-1.495 3.331-3.332 3.331-1.835 0-43.311 0-60.289 0-1.837 0-3.332-1.494-3.332-3.331v-65.658h66.953z"/><path d="m130.98 248.31h15.217l-6.632 15.381c-3.28 7.607.228 16.434 7.834 19.714 7.619 3.282 16.437-.236 19.713-7.835l15.661-36.32c4.27-9.902-3.014-20.939-13.774-20.939h-15.217l6.632-15.38c3.28-7.607-.228-16.434-7.834-19.714-7.609-3.279-16.434.229-19.713 7.835l-15.661 36.319c-4.27 9.901 3.014 20.939 13.774 20.939z"/>
</symbol>
<symbol viewBox="-6 0 512 512" id="kg">
<path d="m427.863281 136.527344h-114.414062c12.054687-14.445313 19.324219-33.019532 19.324219-53.261719 0-45.914063-37.351563-83.265625-83.261719-83.265625-45.914063 0-83.265625 37.351562-83.265625 83.265625 0 20.242187 7.269531 38.816406 19.324218 53.261719h-114.414062l-71.15625 375.472656h499.019531zm-178.351562-106.527344c29.367187 0 53.261719 23.894531 53.261719 53.265625 0 29.367187-23.894532 53.261719-53.261719 53.261719-29.371094 0-53.265625-23.894532-53.265625-53.261719 0-29.371094 23.894531-53.265625 53.265625-53.265625zm-153.507813 136.527344h307.011719l59.785156 315.472656h-426.582031zm0 0"/><path d="m250.117188 264.589844h-34.050782l-47.605468 47.539062v-47.539062h-24.46875v119.890625h24.46875v-40.976563l12.339843-12.03125 37.292969 53.007813h31.585938l-51.40625-69.820313zm0 0"/><path d="m298.527344 341.347656h32.332031v13.148438c-2.597656 1.894531-6.136719 3.753906-10.554687 5.539062-5.375 2.175782-10.960938 3.277344-16.59375 3.277344-6.449219 0-12.621094-1.441406-18.351563-4.285156-5.523437-2.738282-9.625-6.832032-12.53125-12.519532-3-5.863281-4.519531-13.382812-4.519531-22.347656 0-7.261718 1.289062-14.070312 3.816406-20.214844 1.429688-3.417968 3.464844-6.601562 6.050781-9.472656 2.464844-2.734375 5.820313-5 9.964844-6.730468 4.222656-1.761719 9.382813-2.65625 15.34375-2.65625 4.855469 0 9.304687.839843 13.222656 2.496093 3.726563 1.574219 6.585938 3.640625 8.496094 6.136719 2.070313 2.703125 3.863281 6.601562 5.332031 11.589844l1.375 4.667968 22.527344-6.179687-1.214844-4.722656c-2.066406-8.046875-5.175781-14.722657-9.246094-19.851563-4.175781-5.261718-9.945312-9.394531-17.15625-12.285156-6.984374-2.800781-14.859374-4.21875-23.410156-4.21875-11.726562 0-22.28125 2.46875-31.371094 7.335938-9.304687 4.984374-16.523437 12.683593-21.441406 22.882812-4.785156 9.914062-7.207031 20.71875-7.207031 32.125 0 11.546875 2.453125 22.179688 7.300781 31.597656 4.957032 9.640625 12.390625 17.105469 22.101563 22.191406 9.503906 4.980469 20.183593 7.507813 31.742187 7.507813 8.566406 0 17.03125-1.558594 25.160156-4.636719 8.050782-3.042968 15.945313-7.628906 23.464844-13.625l1.871094-1.488281v-48.164063l-56.503906.089844zm0 0"/>
</symbol>
</svg>